<svg xmlns="http://www.w3.org/2000/svg" height="480" width="640" id="flag_eu">
<g display="none">
  <g display="inline">
    <path d="M0,0h213.3v480H0V0z"/>
    <path fill="#FFD90C" d="M213.3,0h213.3v480H213.3V0z"/>
    <path fill="#F31830" d="M426.7,0H640v480H426.7V0z"/>
  </g>
</g>
<g>
  <g>
    <g>
      <path fill="#FFFFFF" d="M329.3,244.7"/>
    </g>
    <g>
      <rect fill="#034EA2" width="640" height="480"/>
      <path fill="#034EA2" d="M329.3,239.9"/>
    </g>
    <g>
      <polygon fill="#FFF200" points="316.2,112.1 329.2,101.6 342.2,112.1 337.3,95.2 350.5,84.7 334.2,84.7 329.2,67.6 324.2,84.7 
        308,84.7 321.2,95.2       "/>
      <polygon fill="#FFF200" points="248.9,132 261.9,121.6 274.9,132 270,115.1 283.2,104.7 266.9,104.7 261.9,87.5 256.9,104.7 
        240.6,104.7 253.8,115.1       "/>
      <polygon fill="#FFF200" points="212.7,141.9 207.7,159.1 191.4,159.1 204.6,169.5 199.7,186.5 212.7,176 225.7,186.5 
        220.7,169.5 233.9,159.1 217.6,159.1       "/>
      <polygon fill="#FFF200" points="194.6,250.1 207.6,260.6 202.7,243.6 215.9,233.2 199.6,233.2 194.6,216 189.6,233.2 
        173.3,233.2 186.5,243.6 181.6,260.6       "/>
      <polygon fill="#FFF200" points="217.6,307.5 212.7,290.4 207.7,307.5 191.4,307.5 204.6,318 199.7,334.9 212.7,324.4 
        225.7,334.9 220.7,318 233.9,307.5       "/>
      <polygon fill="#FFF200" points="267,361.9 262,344.8 257,361.9 240.7,361.9 253.9,372.4 249,389.3 262,378.8 275,389.3 
        270.1,372.4 283.3,361.9       "/>
      <polygon fill="#FFF200" points="334.2,381.6 329.2,364.5 324.3,381.6 308,381.6 321.2,392.1 316.2,409 329.2,398.5 342.2,409 
        337.3,392.1 350.5,381.6       "/>
      <polygon fill="#FFF200" points="401.4,361.9 396.5,344.8 391.5,361.9 375.2,361.9 388.4,372.4 383.5,389.3 396.5,378.8 
        409.5,389.3 404.5,372.4 417.7,361.9       "/>
      <polygon fill="#FFF200" points="450.8,307.5 445.8,290.4 440.8,307.5 424.5,307.5 437.8,318 432.8,334.9 445.8,324.4 
        458.8,334.9 453.9,318 467.1,307.5       "/>
      <polygon fill="#FFF200" points="484.9,233 468.7,233 463.7,215.8 458.7,233 442.4,233 455.6,243.4 450.7,260.4 463.7,249.9 
        476.7,260.4 471.7,243.4       "/>
      <polygon fill="#FFF200" points="432.8,186.2 445.8,175.8 458.8,186.2 453.9,169.3 467.1,158.9 450.8,158.9 445.8,141.7 
        440.8,158.9 424.5,158.9 437.8,169.3       "/>
      <polygon fill="#FFF200" points="396.7,87.5 391.7,104.7 375.4,104.7 388.6,115.1 383.6,132.1 396.7,121.6 409.7,132.1 
        404.7,115.1 417.9,104.7 401.6,104.7       "/>
    </g>
  </g>
</g>
</svg>
