<?xml version="1.0" encoding="utf-8"?>
<!-- Generator: Adobe Illustrator 16.0.0, SVG Export Plug-In . SVG Version: 6.00 Build 0)  -->
<!DOCTYPE svg PUBLIC "-//W3C//DTD SVG 1.1//EN" "http://www.w3.org/Graphics/SVG/1.1/DTD/svg11.dtd">
<svg version="1.1" id="flag_li" xmlns="http://www.w3.org/2000/svg" xmlns:xlink="http://www.w3.org/1999/xlink" x="0px" y="0px"
	 width="640px" height="480px" viewBox="0 0 640 480" enable-background="new 0 0 640 480" xml:space="preserve">
<g>
	<rect x="0" y="-0.4" fill="#002B7F" width="639.166" height="480.4"/>
	<rect x="0" y="239.8" fill="#CE1126" width="639.166" height="240.2"/>
	<g>
		<g id="half">
			<path fill="#FFD83D" d="M173.244,97.513l-1.472,50.042h-50.777c-6.246-12.145-11.406-22.46-11.406-36.427
				c0-11.689,9.195-20.974,22.444-20.974C146.062,90.154,161.474,94.88,173.244,97.513z"/>
			<g>
				<path fill="#FFD83D" stroke="#000000" stroke-width="1.201" stroke-linecap="round" stroke-linejoin="round" d="M115.661,99.812
					v28.885"/>
				<path fill="#FFD83D" stroke="#000000" stroke-width="1.201" stroke-linecap="round" stroke-linejoin="round" d="M119.738,96.864
					v38.459"/>
				<path fill="#FFD83D" stroke="#000000" stroke-width="1.201" stroke-linecap="round" stroke-linejoin="round" d="M123.817,94.841
					v45.818"/>
				<path fill="#FFD83D" stroke="#000000" stroke-width="1.201" stroke-linecap="round" stroke-linejoin="round" d="M127.895,93.895
					v35.935"/>
				<path fill="#FFD83D" stroke="#000000" stroke-width="1.201" stroke-linecap="round" stroke-linejoin="round" d="M131.974,93.717
					v36.292"/>
				<path fill="#FFD83D" stroke="#000000" stroke-width="1.201" stroke-linecap="round" stroke-linejoin="round" d="M136.051,92.449
					v37.54"/>
				<path fill="#FFD83D" stroke="#000000" stroke-width="1.201" stroke-linecap="round" stroke-linejoin="round" d="M140.13,92.449
					v37.54"/>
				<path fill="#FFD83D" stroke="#000000" stroke-width="1.201" stroke-linecap="round" stroke-linejoin="round" d="M144.207,92.816
					v37.54"/>
				<path fill="#FFD83D" stroke="#000000" stroke-width="1.201" stroke-linecap="round" stroke-linejoin="round" d="M148.284,93.185
					v37.54"/>
				<path fill="#FFD83D" stroke="#000000" stroke-width="1.201" stroke-linecap="round" stroke-linejoin="round" d="M152.364,95.577
					v37.539"/>
				<path fill="#FFD83D" stroke="#000000" stroke-width="1.201" stroke-linecap="round" stroke-linejoin="round" d="M156.442,95.944
					v42.323"/>
				<path fill="#FFD83D" stroke="#000000" stroke-width="1.201" stroke-linecap="round" stroke-linejoin="round" d="M160.52,95.944
					v37.539"/>
				<path fill="#FFD83D" stroke="#000000" stroke-width="1.201" stroke-linecap="round" stroke-linejoin="round" d="M164.598,95.944
					v37.539"/>
				<path stroke="#000000" stroke-width="1.201" stroke-linecap="round" stroke-linejoin="round" d="M141.234,94.017
					c8.617,1.421,27.547,10.278,25.388,22.261c-3.06,16.981-12.977,10.167-26.125,7.728l-9.934,3.311
					c-3.556,3.629-8.79,6.953-12.327,2.577h-5.888v22.997h65.128V97.328L141.234,94.017z"/>
			</g>
			
				<circle fill="#FFD83D" stroke="#000000" stroke-width="1.6013" stroke-linecap="round" stroke-linejoin="round" cx="170.394" cy="90.061" r="3.956"/>
			
				<circle fill="#FFD83D" stroke="#000000" stroke-width="1.6013" stroke-linecap="round" stroke-linejoin="round" cx="161.504" cy="87.922" r="3.956"/>
			
				<circle fill="#FFD83D" stroke="#000000" stroke-width="1.6013" stroke-linecap="round" stroke-linejoin="round" cx="152.486" cy="85.657" r="3.956"/>
			
				<circle fill="#FFD83D" stroke="#000000" stroke-width="1.6013" stroke-linecap="round" stroke-linejoin="round" cx="143.433" cy="84.146" r="3.955"/>
			
				<circle fill="#FFD83D" stroke="#000000" stroke-width="1.6013" stroke-linecap="round" stroke-linejoin="round" cx="134.38" cy="83.254" r="3.956"/>
			
				<circle fill="#FFD83D" stroke="#000000" stroke-width="1.6013" stroke-linecap="round" stroke-linejoin="round" cx="125.503" cy="83.76" r="3.955"/>
			
				<circle fill="#FFD83D" stroke="#000000" stroke-width="1.6013" stroke-linecap="round" stroke-linejoin="round" cx="117.041" cy="86.658" r="3.955"/>
			
				<circle fill="#FFD83D" stroke="#000000" stroke-width="1.6013" stroke-linecap="round" stroke-linejoin="round" cx="109.911" cy="91.9" r="3.956"/>
			
				<circle fill="#FFD83D" stroke="#000000" stroke-width="1.6013" stroke-linecap="round" stroke-linejoin="round" cx="104.851" cy="99.214" r="3.956"/>
			
				<circle fill="#FFD83D" stroke="#000000" stroke-width="1.6013" stroke-linecap="round" stroke-linejoin="round" cx="102.415" cy="107.814" r="3.956"/>
			
				<circle fill="#FFD83D" stroke="#000000" stroke-width="1.6013" stroke-linecap="round" stroke-linejoin="round" cx="102.506" cy="116.738" r="3.956"/>
			
				<circle fill="#FFD83D" stroke="#000000" stroke-width="1.6013" stroke-linecap="round" stroke-linejoin="round" cx="104.208" cy="125.477" r="3.956"/>
			<path fill="#FFD83D" stroke="#000000" stroke-width="1.6013" stroke-linecap="round" stroke-linejoin="round" d="M172.141,95.305
				l-0.367,5.151c-9.841-1.507-23.792-6.991-36.795-6.991c-12.015,0-21.341,4.807-21.341,16.926
				c0,11.945,5.058,22.807,11.773,33.852l-6.991,3.312c-6.247-12.145-11.407-22.46-11.407-36.427
				c0-11.689,9.194-23.182,25.021-23.182C146.062,87.944,160.368,92.672,172.141,95.305z"/>
		</g>
		<g transform="translate(443.9375) scale(-1,1)">
			<g id="half_1_">
				<path fill="#FFD83D" d="M220.213,90.153c-13.251,0-22.444,9.285-22.444,20.974c0,13.967,5.159,24.282,11.406,36.427h50.777
					l1.472-50.042C249.653,94.88,234.241,90.154,220.213,90.153z"/>
				<g>
					<path fill="#FFD83D" stroke="#000000" stroke-width="1.201" stroke-linecap="round" stroke-linejoin="round" d="
						M203.84,128.697V99.812"/>
					<path fill="#FFD83D" stroke="#000000" stroke-width="1.201" stroke-linecap="round" stroke-linejoin="round" d="
						M207.918,135.323V96.864"/>
					<path fill="#FFD83D" stroke="#000000" stroke-width="1.201" stroke-linecap="round" stroke-linejoin="round" d="
						M211.996,140.659V94.841"/>
					<path fill="#FFD83D" stroke="#000000" stroke-width="1.201" stroke-linecap="round" stroke-linejoin="round" d="
						M216.074,129.83V93.895"/>
					<path fill="#FFD83D" stroke="#000000" stroke-width="1.201" stroke-linecap="round" stroke-linejoin="round" d="
						M220.152,130.009V93.717"/>
					<path fill="#FFD83D" stroke="#000000" stroke-width="1.201" stroke-linecap="round" stroke-linejoin="round" d="
						M224.23,129.989v-37.54"/>
					<path fill="#FFD83D" stroke="#000000" stroke-width="1.201" stroke-linecap="round" stroke-linejoin="round" d="
						M228.307,129.989v-37.54"/>
					<path fill="#FFD83D" stroke="#000000" stroke-width="1.201" stroke-linecap="round" stroke-linejoin="round" d="
						M232.386,130.356v-37.54"/>
					<path fill="#FFD83D" stroke="#000000" stroke-width="1.201" stroke-linecap="round" stroke-linejoin="round" d="
						M236.466,130.725v-37.54"/>
					<path fill="#FFD83D" stroke="#000000" stroke-width="1.201" stroke-linecap="round" stroke-linejoin="round" d="
						M240.544,133.116V95.577"/>
					<path fill="#FFD83D" stroke="#000000" stroke-width="1.201" stroke-linecap="round" stroke-linejoin="round" d="
						M244.621,138.268V95.944"/>
					<path fill="#FFD83D" stroke="#000000" stroke-width="1.201" stroke-linecap="round" stroke-linejoin="round" d="
						M248.699,133.483V95.944"/>
					<path fill="#FFD83D" stroke="#000000" stroke-width="1.201" stroke-linecap="round" stroke-linejoin="round" d="
						M252.777,133.483V95.944"/>
					<path stroke="#000000" stroke-width="1.201" stroke-linecap="round" stroke-linejoin="round" d="M265.655,97.328v55.562
						h-65.128v-22.997h5.888c3.537,4.376,8.771,1.052,12.327-2.577l9.935-3.311c13.148,2.439,23.065,9.254,26.125-7.728
						c2.158-11.983-16.771-20.84-25.389-22.261L265.655,97.328z"/>
				</g>
				
					<circle fill="#FFD83D" stroke="#000000" stroke-width="1.6013" stroke-linecap="round" stroke-linejoin="round" cx="258.573" cy="90.061" r="3.956"/>
				
					<circle fill="#FFD83D" stroke="#000000" stroke-width="1.6013" stroke-linecap="round" stroke-linejoin="round" cx="249.682" cy="87.922" r="3.956"/>
				
					<circle fill="#FFD83D" stroke="#000000" stroke-width="1.6013" stroke-linecap="round" stroke-linejoin="round" cx="240.665" cy="85.657" r="3.956"/>
				
					<circle fill="#FFD83D" stroke="#000000" stroke-width="1.6013" stroke-linecap="round" stroke-linejoin="round" cx="231.613" cy="84.146" r="3.955"/>
				
					<circle fill="#FFD83D" stroke="#000000" stroke-width="1.6013" stroke-linecap="round" stroke-linejoin="round" cx="222.559" cy="83.253" r="3.956"/>
				
					<circle fill="#FFD83D" stroke="#000000" stroke-width="1.6013" stroke-linecap="round" stroke-linejoin="round" cx="213.682" cy="83.76" r="3.955"/>
				
					<circle fill="#FFD83D" stroke="#000000" stroke-width="1.6013" stroke-linecap="round" stroke-linejoin="round" cx="205.219" cy="86.658" r="3.955"/>
				
					<circle fill="#FFD83D" stroke="#000000" stroke-width="1.6013" stroke-linecap="round" stroke-linejoin="round" cx="198.091" cy="91.9" r="3.956"/>
				
					<circle fill="#FFD83D" stroke="#000000" stroke-width="1.6013" stroke-linecap="round" stroke-linejoin="round" cx="193.031" cy="99.214" r="3.956"/>
				
					<circle fill="#FFD83D" stroke="#000000" stroke-width="1.6013" stroke-linecap="round" stroke-linejoin="round" cx="190.593" cy="107.814" r="3.956"/>
				
					<circle fill="#FFD83D" stroke="#000000" stroke-width="1.6013" stroke-linecap="round" stroke-linejoin="round" cx="190.684" cy="116.738" r="3.956"/>
				
					<circle fill="#FFD83D" stroke="#000000" stroke-width="1.6013" stroke-linecap="round" stroke-linejoin="round" cx="192.386" cy="125.477" r="3.956"/>
				<path fill="#FFD83D" stroke="#000000" stroke-width="1.6013" stroke-linecap="round" stroke-linejoin="round" d="
					M220.213,87.946c-15.827,0-25.021,11.493-25.021,23.182c0,13.967,5.159,24.282,11.407,36.427l6.991-3.312
					c-6.716-11.045-11.774-21.907-11.774-33.852c0-12.119,9.326-16.926,21.342-16.926c13.003,0,26.953,5.484,36.795,6.991
					l0.368-5.151C248.55,92.672,234.241,87.944,220.213,87.946z"/>
			</g>
		</g>
		<path fill="#FFD83D" stroke="#000000" stroke-width="1.6013" stroke-linecap="round" stroke-linejoin="round" d="M177.722,42.135
			l-4.128,7.731l4.128,7.707l4.129-7.707L177.722,42.135z M177.722,61.651l-4.128,7.707l4.128,7.731l4.129-7.731L177.722,61.651z"/>
		<path fill="#FFD83D" stroke="#000000" stroke-width="1.6013" stroke-linecap="round" stroke-linejoin="round" d="M163.005,59.613
			l6.51,4.128l6.49-4.128l-6.49-4.129L163.005,59.613z M179.44,59.613l6.49,4.128l6.51-4.128l-6.51-4.129L179.44,59.613z"/>
		
			<circle fill="#FFD83D" stroke="#000000" stroke-width="1.6013" stroke-linecap="round" stroke-linejoin="round" cx="177.722" cy="59.705" r="3.128"/>
		
			<circle fill="#FFD83D" stroke="#000000" stroke-width="1.6013" stroke-linecap="round" stroke-linejoin="round" cx="177.722" cy="79.667" r="8.371"/>
		<path fill="none" stroke="#000000" stroke-width="1.201" stroke-linecap="round" stroke-linejoin="round" d="M175.62,71.56
			c0,2.493-0.018,3.942-0.024,5.304c-2.02,0.089-4.008,0.302-5.955,0.625 M185.804,77.49c-1.947-0.323-3.938-0.536-5.955-0.625
			c0-1.36,0-2.805,0-5.304 M169.615,81.718c2.639-0.44,5.345-0.675,8.106-0.675s5.469,0.235,8.105,0.675"/>
		<path fill="#FFD83D" stroke="#000000" stroke-width="1.6013" stroke-linecap="round" stroke-linejoin="round" d="M169.541,93.829
			c-0.795,13.677-2.409,27.606-7.731,37.731l8.657-3.503c3.022-11.472,3.658-26.295,4.579-33.302L169.541,93.829z M185.905,93.829
			l-5.505,0.926c0.92,7.007,1.555,21.83,4.579,33.302l8.657,3.503C188.314,121.434,186.698,107.505,185.905,93.829z"/>
		<path fill="#FFD83D" stroke="#000000" stroke-width="1.6013" stroke-linecap="round" stroke-linejoin="round" d="M177.71,123.453
			c-10.341,0-17.936,4.873-18.392,17.29c-2.526-4.447-13.22-18.437-23.193-16.564c-5.934,1.114-11.175,9.341-10.284,18.766
			c-4.912-14.115-19.302-16.429-29.799-8.082c9.32,7.664,13.468,30.293,21.316,40.108h60.352h60.35
			c7.849-9.815,12.021-32.444,21.343-40.108c-10.499-8.347-24.888-6.034-29.8,8.082c0.891-9.425-4.376-17.652-10.309-18.766
			c-9.977-1.873-20.643,12.117-23.169,16.564C195.669,128.326,188.049,123.453,177.71,123.453z"/>
		<g>
			<path stroke="#000000" stroke-width="1.201" stroke-linecap="round" stroke-linejoin="round" d="M237.883,174.966
				c0,4.469-26.952,9.383-60.161,9.383s-60.16-4.914-60.16-9.383c0-4.468,26.952-6.807,60.16-6.807S237.883,170.498,237.883,174.966
				z"/>
			
				<circle fill="#FFD83D" stroke="#000000" stroke-width="1.201" stroke-linecap="round" stroke-linejoin="round" cx="177.722" cy="91.232" r="2.805"/>
			
				<circle fill="#FFD83D" stroke="#000000" stroke-width="1.201" stroke-linecap="round" stroke-linejoin="round" cx="177.722" cy="97.302" r="2.99"/>
			
				<circle fill="#FFD83D" stroke="#000000" stroke-width="1.201" stroke-linecap="round" stroke-linejoin="round" cx="177.722" cy="103.833" r="3.266"/>
			
				<circle fill="#FFD83D" stroke="#000000" stroke-width="1.201" stroke-linecap="round" stroke-linejoin="round" cx="177.722" cy="111.101" r="3.726"/>
			
				<circle fill="#FFD83D" stroke="#000000" stroke-width="1.201" stroke-linecap="round" stroke-linejoin="round" cx="177.722" cy="119.196" r="4.094"/>
			<path d="M176.096,127.071c-0.443-0.006-0.862,0.368-0.75,1.075c0.13,0.836,0.294,2.399,0.45,3.454
				c0.176,1.195,0.873,0.905,1.051-0.025c0.177-0.93,0.104-1.527,0.149-3.253C177.019,127.458,176.538,127.077,176.096,127.071z
				 M179.349,127.071c-0.442,0.005-0.923,0.388-0.901,1.251c0.045,1.726-0.026,2.323,0.15,3.253s0.874,1.22,1.051,0.025
				c0.156-1.055,0.32-2.617,0.451-3.454C180.21,127.438,179.792,127.064,179.349,127.071z M173.194,127.521
				c-0.404,0.056-0.825,0.465-0.801,0.901c0.044,0.796,0.265,1.752,0.351,2.952c0.089,1.24,0.961,0.758,1.052,0.05
				c0.088-0.708,0.188-1.755,0.1-3.127c-0.033-0.515-0.258-0.741-0.525-0.776C173.314,127.514,173.252,127.513,173.194,127.521z
				 M182.075,127.521c-0.267,0.035-0.493,0.261-0.524,0.776c-0.089,1.372,0.012,2.419,0.1,3.127s0.963,1.189,1.051-0.05
				c0.085-1.2,0.307-2.156,0.352-2.952c0.023-0.437-0.396-0.845-0.801-0.901C182.194,127.513,182.132,127.514,182.075,127.521z
				 M169.716,128.922c-0.371,0.096-0.711,0.542-0.602,1.051c0.223,1.018,0.426,2.144,0.426,3.177c0,0.886,0.757,0.569,0.802-0.05
				c0.044-0.62,0.125-1.932,0.125-3.127C170.467,129.081,170.086,128.827,169.716,128.922z M185.479,128.922
				c-0.264,0.073-0.5,0.381-0.5,1.051c0,1.195,0.081,2.507,0.125,3.127c0.044,0.619,0.801,0.936,0.801,0.05
				c0-1.034,0.204-2.159,0.425-3.177c0.11-0.509-0.229-0.955-0.601-1.051C185.636,128.897,185.567,128.897,185.479,128.922z
				 M138.164,129.059c-0.443-0.015-0.755,0.586-0.45,1.251c0.485,1.062,1.004,1.733,1.501,2.877c0.442,1.018,1.122,0.383,0.9-0.325
				c-0.222-0.709-0.462-1.498-1.126-3.003C138.74,129.295,138.43,129.067,138.164,129.059z M217.28,129.059
				c-0.266,0.008-0.577,0.236-0.825,0.8c-0.663,1.505-0.904,2.294-1.125,3.003c-0.222,0.708,0.457,1.343,0.9,0.325
				c0.497-1.144,1.014-1.815,1.501-2.877C218.033,129.646,217.724,129.044,217.28,129.059z M141.366,129.109
				c-0.325,0.1-0.523,0.513-0.325,1c0.398,0.974,0.975,1.973,1.377,3.027c0.354,0.93,1.142,0.666,0.875-0.175
				c-0.267-0.841-0.346-1.333-0.875-2.928C142.152,129.238,141.694,129.01,141.366,129.109z M213.827,129.109
				c-0.278,0.059-0.602,0.328-0.801,0.925c-0.531,1.594-0.609,2.086-0.875,2.928c-0.266,0.841,0.521,1.104,0.875,0.175
				c0.402-1.055,0.979-2.054,1.376-3.027c0.2-0.487,0.001-0.901-0.324-1C213.995,129.084,213.921,129.089,213.827,129.109z
				 M145.37,129.885c-0.413,0.078-0.729,0.706-0.45,1.476c0.354,0.974,0.857,1.896,1.301,3.002c0.441,1.106,1.177,0.883,1,0.175
				s-0.395-1.882-0.926-3.652C146.064,130.11,145.691,129.824,145.37,129.885z M210.073,129.885
				c-0.319-0.061-0.692,0.226-0.926,1.001c-0.532,1.771-0.749,2.944-0.926,3.652s0.558,0.932,1-0.175s0.947-2.029,1.301-3.002
				C210.805,130.591,210.486,129.963,210.073,129.885z M135.462,130.435c-0.446,0.045-0.854,0.773-0.575,1.326
				c0.441,0.885,0.724,1.187,1.15,2.126c0.443,0.974,0.929,0.22,0.75-0.4c-0.177-0.62-0.403-1.341-0.625-2.227
				C136,130.613,135.73,130.408,135.462,130.435z M219.983,130.435c-0.267-0.027-0.539,0.177-0.701,0.826
				c-0.221,0.885-0.449,1.607-0.625,2.227c-0.177,0.621,0.309,1.375,0.751,0.4c0.427-0.939,0.707-1.241,1.151-2.126
				C220.834,131.208,220.428,130.48,219.983,130.435z M166.313,132.676c-0.468-0.001-0.967,0.62-0.801,1.201
				c0.265,0.93,0.676,1.754,0.976,2.952c0.266,1.062,1.021,0.533,0.977-0.175s-0.166-1.672-0.477-3.177
				C166.871,132.912,166.593,132.676,166.313,132.676z M189.132,132.676c-0.281,0-0.561,0.236-0.677,0.801
				c-0.31,1.505-0.431,2.469-0.475,3.177c-0.044,0.708,0.71,1.238,0.977,0.175c0.3-1.198,0.71-2.022,0.976-2.952
				C190.098,133.294,189.6,132.675,189.132,132.676z M177.722,133.625c-0.576,0-0.655,0.773-0.675,1.401
				c-0.066,2.059-0.921,4.058-1.651,5.054c-0.729,0.996-1.806,0.731-2.802,0.2c-0.996-0.532-1.59-0.929-2.653-1.727
				c-1.062-0.796-1.868-0.331-0.6,1.477c3.695,5.269,7.706,9.772,7.706,18.366c0,1.111,0.193,1.451,0.675,1.451
				c0.48,0,0.701-0.34,0.701-1.451c0-8.594,3.982-13.097,7.681-18.366c1.268-1.807,0.463-2.273-0.6-1.477
				c-1.063,0.798-1.656,1.195-2.652,1.727c-0.996,0.531-2.072,0.796-2.802-0.2c-0.73-0.997-1.586-2.996-1.651-5.054
				C178.378,134.398,178.298,133.625,177.722,133.625z M149.474,132.336c-0.051-0.001-0.105,0.011-0.15,0.025
				c-0.215,0.067-0.358,0.327-0.274,0.775c0.147,0.803,0.705,2.375,0.926,3.128c0.222,0.752,1.146,0.593,0.926-0.425
				c-0.222-1.019-0.21-1.326-0.475-2.479C150.28,132.732,149.825,132.346,149.474,132.336z M205.971,132.336
				c-0.354,0.009-0.807,0.396-0.951,1.025c-0.266,1.151-0.254,1.458-0.475,2.479c-0.223,1.018,0.702,1.177,0.925,0.425
				c0.222-0.753,0.776-2.325,0.926-3.128c0.083-0.449-0.06-0.708-0.275-0.775C206.074,132.348,206.021,132.335,205.971,132.336z
				 M132.685,132.662c-0.464,0.037-0.796,0.619-0.325,1.477c0.507,0.926,1.377,2.088,1.776,2.751c0.397,0.664,1.087,0.216,0.6-0.625
				s-0.649-1.808-1.226-3.002C133.295,132.813,132.963,132.64,132.685,132.662z M222.76,132.662
				c-0.278-0.022-0.609,0.152-0.826,0.601c-0.576,1.195-0.74,2.161-1.227,3.002c-0.487,0.841,0.201,1.289,0.602,0.625
				c0.396-0.664,1.268-1.826,1.776-2.751C223.555,133.281,223.223,132.699,222.76,132.662z M107.314,135.328
				c-0.535-0.029-0.702,0.937-0.2,1.576c0.73,0.93,1.239,1.422,2.076,2.177c0.665,0.597,0.857-0.179,0.526-0.776
				c-0.333-0.597-0.812-1.206-1.477-2.202C107.875,135.557,107.557,135.341,107.314,135.328z M248.131,135.328
				c-0.243,0.013-0.562,0.229-0.927,0.775c-0.663,0.997-1.145,1.605-1.476,2.202c-0.332,0.598-0.139,1.373,0.525,0.776
				c0.837-0.755,1.346-1.247,2.076-2.177C248.834,136.265,248.664,135.299,248.131,135.328z M111.342,136.127
				c-0.426,0.005-0.707,0.32-0.375,1.051c0.475,1.045,1.103,2.23,1.501,3.027c0.397,0.797,1.612,1.064,1.126-0.175
				c-0.487-1.24-0.584-1.877-1.026-3.027C112.347,136.428,111.768,136.123,111.342,136.127z M244.103,136.127
				c-0.426-0.005-1.005,0.3-1.227,0.876c-0.443,1.15-0.539,1.788-1.026,3.027c-0.487,1.239,0.728,0.972,1.126,0.175
				c0.399-0.797,1.026-1.982,1.501-3.027C244.809,136.449,244.529,136.134,244.103,136.127z M103.536,136.402
				c-0.62,0.007-0.674,0.628-0.125,1.026c0.729,0.531,1.601,1.12,2.451,1.801c0.996,0.797,1.383,0.064,0.852-0.6
				c-0.532-0.665-1.048-1.337-2.376-2.001C104.004,136.461,103.742,136.401,103.536,136.402z M251.908,136.402
				c-0.208-0.001-0.469,0.059-0.801,0.226c-1.329,0.664-1.846,1.337-2.376,2.001c-0.532,0.665-0.146,1.396,0.852,0.6
				c0.85-0.681,1.721-1.27,2.451-1.801C252.581,137.031,252.529,136.41,251.908,136.402z M164.111,136.979
				c-0.347,0.049-0.646,0.442-0.5,0.951c0.266,0.93,0.567,1.914,0.75,2.877c0.177,0.93,1.253,0.941,1.076,0.1
				c-0.177-0.841-0.266-1.893-0.575-3.177c-0.117-0.482-0.358-0.713-0.601-0.751C164.21,136.971,164.16,136.972,164.111,136.979z
				 M191.184,136.979c-0.242,0.038-0.485,0.269-0.602,0.751c-0.31,1.284-0.398,2.336-0.575,3.177c-0.178,0.841,0.898,0.83,1.075-0.1
				c0.184-0.963,0.485-1.948,0.75-2.877c0.146-0.509-0.152-0.902-0.5-0.951C191.283,136.972,191.234,136.971,191.184,136.979z
				 M140.016,135.39c-0.272,0.075-0.43,0.596-0.227,1.327c1.13,4.05,1.477,6.184,1.276,7.181c-0.199,0.996-0.746,1.132-1.477,0.801
				c-0.73-0.333-1.587-0.812-2.252-1.277c-0.664-0.465-1.355,0.091-0.4,0.876c4.848,3.984,8.208,8.539,9.508,14.062
				c0.266,1.129,0.976,1.262,0.775,0c-1.1-6.958-1.311-12.678,0.351-16.263c0.624-1.349-0.005-2.643-1.001-0.451
				c-0.663,1.461-1.739,2.038-2.603,0.775c-0.863-1.262-2.646-4.627-3.178-6.155c-0.198-0.574-0.444-0.838-0.649-0.876
				C140.098,135.382,140.055,135.378,140.016,135.39z M215.304,135.39c-0.206,0.038-0.452,0.302-0.651,0.876
				c-0.531,1.527-2.313,4.893-3.177,6.155c-0.864,1.262-1.938,0.686-2.603-0.775c-0.996-2.192-1.625-0.898-1.001,0.451
				c1.66,3.585,1.449,9.306,0.351,16.263c-0.2,1.262,0.51,1.129,0.775,0c1.3-5.523,4.66-10.078,9.509-14.062
				c0.954-0.785,0.263-1.341-0.4-0.876c-0.663,0.465-1.521,0.944-2.252,1.277c-0.729,0.332-1.278,0.195-1.476-0.801
				c-0.199-0.997,0.146-3.13,1.275-7.181c0.204-0.731,0.047-1.251-0.225-1.327C215.39,135.378,215.346,135.382,215.304,135.39z
				 M115.646,137.329c-0.438,0.005-0.8,0.312-0.601,0.976c0.318,1.063,0.979,2.214,1.201,2.877c0.222,0.664,0.934,0.354,0.801-0.576
				c-0.133-0.929-0.198-1.483-0.375-2.502C116.583,137.596,116.083,137.324,115.646,137.329z M239.799,137.329
				c-0.438-0.005-0.938,0.267-1.025,0.775c-0.178,1.019-0.242,1.573-0.375,2.502c-0.133,0.93,0.579,1.24,0.801,0.576
				s0.881-1.814,1.201-2.877C240.599,137.641,240.237,137.334,239.799,137.329z M130.683,135.939
				c-0.509-0.091-0.582,1.221-0.15,1.751c0.576,0.709,1.375,1.565,2.178,2.528c0.665,0.797,1.074,0.088,0.676-0.576
				c-0.399-0.665-0.99-1.371-2.052-3.052C131.068,136.169,130.853,135.971,130.683,135.939z M224.762,135.939
				c-0.17,0.031-0.385,0.23-0.651,0.651c-1.062,1.682-1.653,2.388-2.052,3.052s0.012,1.373,0.676,0.576
				c0.801-0.962,1.603-1.818,2.177-2.528C225.343,137.161,225.27,135.849,224.762,135.939z M119.073,139.105
				c-0.316-0.022-0.583,0.233-0.45,0.875c0.185,0.895,0.453,1.636,0.675,2.478c0.221,0.84,0.801,0.697,0.801-0.1
				c0-0.797-0.143-1.687-0.274-2.527C119.758,139.411,119.389,139.127,119.073,139.105z M236.37,139.105
				c-0.314,0.022-0.684,0.305-0.751,0.726c-0.132,0.841-0.274,1.73-0.274,2.527c0,0.797,0.58,0.94,0.801,0.1
				c0.221-0.841,0.49-1.583,0.675-2.478C236.954,139.339,236.687,139.083,236.37,139.105z M129.557,140.244
				c-0.495,0.075-0.932,0.554-0.351,1.301c0.931,1.195,1.948,2.035,2.303,2.478c0.354,0.443,1.251,0.279,0.675-0.65
				c-0.589-0.95-1.479-2.094-1.876-2.803C130.158,140.303,129.855,140.199,129.557,140.244z M225.687,140.244
				c-0.218,0.022-0.438,0.126-0.55,0.325c-0.399,0.709-1.289,1.854-1.876,2.803c-0.576,0.929,0.321,1.093,0.675,0.65
				c0.354-0.443,1.373-1.282,2.302-2.478c0.582-0.747,0.146-1.226-0.35-1.301C225.813,140.231,225.76,140.235,225.687,140.244z
				 M113.019,143.583c-0.391-0.035-0.525,0.28,0,1.001c1.195,1.638,2.515,4.116,2.604,5.179c0.088,1.062-0.438,1.051-0.927,1.051
				c-1.461,0-2.175-1.066-3.503-1.376c-1.327-0.311-1.521,0.389-0.574,1.076c4.868,3.541,9.75,7.493,11.709,11.084
				c0.797,1.461,1.874,1.995,1.275,0.601c-1.831-4.274-2.274-7.893-1.876-10.083c0.399-2.192,0.942-3.667,0.875-4.929
				c-0.065-1.262-0.782-1.175-1.076,0c-0.198,0.797-0.585,1.853-0.85,2.252c-0.266,0.398-1.334,0.621-2.353-0.751
				c-1.02-1.373-3.588-4.015-4.43-4.679C113.578,143.761,113.253,143.605,113.019,143.583z M242.426,143.583
				c-0.234,0.021-0.561,0.176-0.875,0.426c-0.841,0.664-3.411,3.306-4.43,4.679c-1.019,1.372-2.087,1.149-2.352,0.751
				c-0.266-0.399-0.652-1.455-0.851-2.252c-0.293-1.175-1.01-1.262-1.075,0c-0.067,1.262,0.477,2.737,0.875,4.929
				c0.396,2.191-0.046,5.81-1.876,10.083c-0.6,1.394,0.479,0.86,1.275-0.601c1.958-3.591,6.839-7.543,11.71-11.084
				c0.945-0.688,0.752-1.387-0.575-1.076c-1.329,0.31-2.042,1.376-3.503,1.376c-0.49,0-1.016,0.012-0.927-1.051
				c0.088-1.063,1.407-3.542,2.603-5.179C242.951,143.865,242.817,143.549,242.426,143.583z"/>
			<path fill="#FFD83D" stroke="#000000" stroke-width="1.201" stroke-linecap="round" stroke-linejoin="round" d="M120.201,169.861
				l1.561,4.944 M123.412,168.926l1.384,4.996 M126.881,168.354l0.949,5.096 M130.099,167.71l1.017,5.083 M134.228,167.304
				l0.827,5.118 M138.618,167.309l0.891,5.107 M142.906,165.859l0.644,5.144 M146.938,166.12l0.643,5.145 M150.841,165.6
				l0.644,5.144 M154.759,165.194l0.354,5.172 M158.945,165.193l0.308,5.175 M162.739,164.932l0.263,5.178 M166.926,164.67
				l0.217,5.18 M171.739,164.541l0.218,5.18 M235.243,169.861l-1.562,4.944 M232.031,168.926l-1.383,4.996 M228.564,168.354
				l-0.951,5.096 M225.345,167.71l-1.019,5.083 M221.217,167.304l-0.827,5.118 M216.825,167.309l-0.891,5.107 M212.538,165.859
				l-0.644,5.144 M208.507,166.12l-0.644,5.145 M204.604,165.6l-0.644,5.144 M200.686,165.194l-0.354,5.172 M196.5,165.193
				l-0.309,5.175 M192.704,164.932l-0.262,5.178 M188.52,164.67l-0.217,5.18 M183.705,164.541l-0.217,5.18 M177.722,164.204v5.704"
				/>
		</g>
	</g>
</g>
</svg>
